<?xml version="1.0" encoding="utf-8"?>
<!-- Generator: Adobe Illustrator 23.0.3, SVG Export Plug-In . SVG Version: 6.00 Build 0)  -->
<svg version="1.1" id="Layer_1" xmlns="http://www.w3.org/2000/svg" xmlns:xlink="http://www.w3.org/1999/xlink" x="0px" y="0px"
	 viewBox="0 0 199 34" style="enable-background:new 0 0 199 34;" xml:space="preserve">
<style type="text/css">
	.st0{fill:#E45057;}
	.st1{fill:#E4555B;}
</style>
<g>
	<g>
		<path class="st0" d="M43,1c3,3.63,3,3.63,3,9.25c0,5.66-0.12,11.33,0.06,16.99c0.07,2.35-0.4,4.18-2.34,5.57
			C43.35,33.07,42.84,33.37,43,34c-14,0-28,0-42,0C1,23,1,12,1,1C15,1,29,1,43,1z M31.8,10c2.36,5.78,0.56,11.75,1.36,17.61
			c0.14,0.08,0.39,0.27,0.67,0.39c4.05,1.74,6.12,0.46,6.16-3.85c0.04-4.16,0.05-8.31,0-12.47C39.95,7.97,38,6.04,34.24,6.01
			C28.92,5.97,23.6,6,18.28,6c-2.16,0-4.33-0.1-6.48,0.02c-3.47,0.2-4.78,1.65-4.8,5.12C6.99,16.62,7,22.09,7,27.53
			c0.34,0.18,0.61,0.34,0.89,0.46c4.01,1.71,6.06,0.4,6.1-3.91c0.03-3.66-0.03-7.31,0.02-10.97c0.03-2.4,0.73-3.08,3.23-3.1
			C22.05,9.97,26.85,10,31.8,10z M27,27.29c0-3.95,0.04-8.12-0.01-12.28c-0.03-2.34-0.8-2.97-3.36-3c-2.81-0.03-3.56,0.45-3.6,2.75
			C19.94,19.06,20,23.37,20,27.56C22.29,29.1,24.44,29.71,27,27.29z"/>
		<path class="st1" d="M73,14c-1.51,0-2.51,0-4,0c0,2.08,0,4.19,0,6.29c0,1.66,0.02,3.33,0,4.99c-0.04,2.77-0.8,3.82-2.65,3.72
			c-1.58-0.09-2.32-1.15-2.34-3.53C63.98,21.81,64,18.15,64,14.43c-1.52-0.91-3.14-0.13-5-0.6c0,4.33,0.04,8.28-0.02,12.24
			c-0.03,2.17-0.45,2.47-3.77,2.98C54.75,22.8,55.14,16.57,54.96,10c5.79,0,11.4-0.01,17.01,0.01c1.27,0,2.55-0.31,3.61,1
			c1.11,1.38,2.32,2.72,2.38,4.51c0.13,3.66,0.03,7.32,0.04,10.98c0,1.6-0.96,2.33-2.37,2.49c-1.57,0.17-2.58-0.85-2.61-2.72
			C72.96,22.29,73,18.32,73,14z"/>
		<path class="st1" d="M96.73,22.97c0.88,2.83-0.85,4.09-2.49,4.98c-2.93,1.59-6.1,1.44-9.3,0.53c-4.38-1.24-4.3-5.17-4.83-8.37
			c-0.66-4.04,0.99-7.55,4.52-10.1c2.01,0,4.17-0.02,6.32,0.01c1.27,0.02,2.55-0.31,3.6,0.98c1.12,1.36,2.11,2.73,2.43,4.49
			c0.09,0.48,0.01,0.99,0.01,1.49c0,1.29,0,2.57,0,4.02c-4.09,0-7.87,0-11.63,0c-0.2,3.23,0.21,3.94,2.49,4
			c1.92,0.05,3.89,0.4,5.35-1.59C93.92,22.43,95.38,23.15,96.73,22.97z M84.97,16.75c2.69,0,5.34,0,7.96,0
			c0.34-1.62-1.25-2.3-1.2-3.58C85.5,12.9,85.5,12.9,84.97,16.75z"/>
		<path class="st1" d="M169.26,21c0.01,3.42,0.36,3.95,2.74,3.98c1.93,0.03,3.97,0.45,5.33-1.69c0.27-0.43,1.48-0.25,2.35-0.37
			c0.39,1.39,0.78,2.74-0.01,3.83c-1.06,1.46-2.75,2.21-4.52,2.19c-2.37-0.02-4.8,0.57-7.09-0.9c-1.72-1.1-2.72-2.19-3.19-4.38
			c-0.62-2.84-0.67-5.32-0.07-8.21c0.47-2.27,1.85-3.3,3.03-4.77c1.04-1.3,2.47-0.6,3.7-0.64c2.22-0.08,4.48-0.39,6.58,0.93
			c2.07,1.31,3.81,6.91,2.53,8.87c-0.56,0.85-1.35,1.3-2.5,1.19c-1.48-0.14-2.99-0.03-4.48-0.03C172.18,21,170.72,21,169.26,21z
			 M169.2,16.84c2.21,0,4.42,0,6.63,0c-0.17-3.54-0.44-3.84-3.35-3.84C169.61,13,169.32,13.34,169.2,16.84z"/>
		<path class="st1" d="M112,10.8c0-1.56-0.24-2.94,0.09-4.17c0.2-0.78,1.03-1.89,2.15-1.57c0.68,0.19,1.42,0.92,1.7,1.59
			c0.29,0.71,0.07,1.63,0.07,2.46c0,6.13,0,12.27,0,18.64c-2.72,0.69-5.59,0.08-8.41,1.1c-2.83,1.03-7.24-2.64-7.53-5.79
			c-0.16-1.76-1.91-3.38-0.97-5c0.88-1.52,1.11-3.23,1.72-4.77c0.68-1.71,1.78-2.07,3.03-2.63C106.46,9.5,109.04,9.74,112,10.8z
			 M112,23.56c0-2.22-0.06-4.51,0.02-6.8c0.07-1.99-1.41-3.05-2.73-3.64c-1.16-0.52-2.69-0.24-4.01,0.93
			c-1.06,0.95-1.44,2.16-1.93,3.22c-1.17,2.53,0.26,4.91,1.52,6.98c1,1.66,3.07,0.76,4.57,0.6C110.07,24.79,111.09,24.13,112,23.56z
			"/>
		<path class="st1" d="M143,14.35c0,3.82,0,8.48,0,13.37c-1.53,0.56-3.24,0.47-4.77,0.19c-1.68-0.31-2.53,1.21-4.1,1.16
			c-2.4-0.07-4.31-0.8-6.02-2.45c-2.2-2.11-1.13-4.77-0.92-7.03c0.15-1.59,2.5-2.36,4.2-2.54c2.44-0.25,4.92-0.06,7.38-0.06
			c-0.06-3.49-0.37-3.91-2.81-4c-1.97-0.07-3.91-0.28-5.33,1.74c-0.45,0.64-2.01,0.66-2.55-0.29c-0.29-0.51-0.47-1.61,0.27-2.31
			c1.17-1.1,2.08-2.64,4.11-2.17c0.63,0.15,1.33,0.07,1.99,0.02C137.9,9.74,141.19,9.81,143,14.35z M138.69,20
			c-1.85,0-3.48,0.04-5.12-0.01c-1.59-0.05-2.35,0.92-2.52,2.25c-0.11,0.88-0.47,1.95,0.53,2.85c1.85-0.65,4.09,0.88,5.89-1.03
			C138.51,22.97,139.55,22.01,138.69,20z"/>
		<path class="st1" d="M147,10c3.31,0,6.42-0.07,9.53,0.03c1.95,0.06,4.37,2.13,4.43,3.94c0.13,4.31,0.06,8.62,0.03,12.94
			c-0.01,1.13-0.89,1.7-1.77,2.07c-0.76,0.31-2.18-0.99-2.2-2.09c-0.06-4.14-0.02-8.28-0.02-12.41c-1.84-0.99-3.61-2.11-6-1.1
			c0,3.37,0,6.83,0,10.28c0,1,0,1.99,0,2.99c0,1.36-0.83,2.28-2,2.28c-1.17,0-2-0.92-2-2.29C147,21.19,147,15.74,147,10z"/>
		<path class="st1" d="M184,6.25c2.14-0.53,3.99-0.2,3.89,1.87c-0.13,2.69,1.79,1.66,3,1.92c0,1.35,0,2.47,0,3.58
			c-0.69,0.74-1.57,0.21-2.34,0.38c-0.18,0.25-0.52,0.49-0.52,0.74c-0.04,2.49,0.07,4.98-0.06,7.46c-0.06,1.18,0.41,2.23,1.25,2.42
			c2.84,0.63,1.4,2.62,1.89,4.12c-1.95,0.45-3.29,0.03-4.85-0.63c-1.9-0.8-2.3-1.87-2.28-3.67C184.04,18.47,184,12.5,184,6.25z"/>
		<path class="st1" d="M119,10.1c1.82,0,3.27,0,5,0c0,5.52-0.01,10.94,0.01,16.36c0.01,1.6-0.94,2.32-2.32,2.51
			c-1.58,0.22-2.64-0.8-2.66-2.63C118.96,21.05,119,15.76,119,10.1z"/>
	</g>
</g>
</svg>
